# xmcd
#
# Track frame offsets:
#	150
#	16895
#	40274
#	51991
#	71211
#	84123
#	102917
#
# Disc length: 1376 seconds
#
# Revision: 1
# Processed by: cddbd v1.5.2PL0 Copyright (c) Steve Scherf et al.
# Submitted via: audiograbber 1.83.01
#
DISCID=53055e07
DTITLE=Martfeld Blues Band - Strange Blues
DYEAR=2009
DGENRE=Blues
TTITLE0=All your love
TTITLE1=Black magic women
TTITLE2=Strange Brew
TTITLE3=She´s not there
TTITLE4=Walking on Sunset
TTITLE5=The thrill is gone
TTITLE6=Noppe
EXTD=
EXTT0=
EXTT1=
EXTT2=
EXTT3=
EXTT4=
EXTT5=
EXTT6=
PLAYORDER=
